<?xml version="1.0" encoding="UTF-8" standalone="no"?>
<!DOCTYPE svg PUBLIC "-//W3C//DTD SVG 20010904//EN"
              "http://www.w3.org/TR/2001/REC-SVG-20010904/DTD/svg10.dtd">

<svg xmlns="http://www.w3.org/2000/svg"
     width="1.73611in" height="1.73611in"
     viewBox="0 0 125 125">
  <path id="Selection"
        fill="none" stroke="black" stroke-width="1"
        d="M 36.00,18.00
           C 32.23,18.42 28.00,21.00 28.00,21.00
             28.00,21.00 22.00,27.00 22.00,27.00
             22.00,27.00 19.19,30.72 17.49,35.96
             16.37,39.42 12.77,42.10 13.75,46.25
             11.71,49.04 11.50,51.75 11.25,57.25
             10.75,64.00 11.64,71.11 11.93,73.01
             12.40,76.08 10.97,85.39 14.00,86.25
             13.65,90.23 14.16,93.94 17.50,96.50
             17.44,98.84 18.75,99.66 20.52,101.57
             22.82,104.04 25.47,103.57 28.42,104.04
             35.22,105.26 43.00,107.00 43.00,107.00
             43.00,107.00 49.00,108.00 49.00,108.00
             53.22,110.15 65.97,109.81 69.73,110.48
             69.73,110.48 97.91,114.63 97.91,114.63
             101.69,115.01 107.10,116.47 109.44,112.74
             111.27,109.81 113.15,101.60 113.75,98.00
             116.79,79.94 106.00,49.00 106.00,49.00
             102.01,34.13 82.36,14.05 66.00,15.00
             63.50,12.23 58.54,13.06 54.99,13.01
             49.56,12.93 39.24,13.19 36.00,18.00 Z
           M 99.75,43.00
           C 99.75,43.00 102.75,53.00 102.75,53.00
             102.75,53.00 103.75,57.00 103.75,57.00
             108.61,63.99 109.86,82.39 109.75,91.00
             109.72,93.14 109.86,96.52 108.01,98.01
             106.22,99.45 99.15,98.75 96.71,98.55
             88.07,97.80 85.03,97.05 76.75,95.26
             71.24,93.22 69.32,93.78 64.75,89.00
             58.54,87.77 50.28,76.23 49.75,70.00
             43.75,65.37 45.80,56.40 44.75,50.00
             44.75,50.00 50.75,43.00 50.75,43.00
             50.75,43.00 99.75,43.00 99.75,43.00 Z
           M 109.50,53.50 109.50,53.50 109.50,53.50 109.50,53.50
           M 112.00,62.75 112.00,62.75 112.00,62.75 112.00,62.75
           M 28.00,53.25" />
</svg>
