<?xml version="1.0" encoding="UTF-8" standalone="no"?>
<!DOCTYPE svg PUBLIC "-//W3C//DTD SVG 20010904//EN"
              "http://www.w3.org/TR/2001/REC-SVG-20010904/DTD/svg10.dtd">

<svg xmlns="http://www.w3.org/2000/svg"
     width="1.73611in" height="1.73611in"
     viewBox="0 0 125 125">
  <path id="Selection"
        fill="none" stroke="black" stroke-width="1"
        d="M 81.00,37.00
           C 81.00,37.00 85.00,37.00 85.00,37.00
             80.91,44.57 77.48,39.16 70.00,40.69
             60.69,42.60 57.92,48.67 53.00,49.65
             44.95,51.24 41.11,41.44 37.00,41.57
             35.18,41.62 31.62,44.84 30.00,46.00
             30.00,46.00 33.00,41.00 33.00,41.00
             33.00,41.00 26.00,41.00 26.00,41.00
             28.26,48.43 36.94,49.50 42.95,53.35
             46.16,55.41 47.68,58.08 50.00,61.00
             50.00,61.00 40.00,63.00 40.00,63.00
             30.04,54.57 13.98,60.86 12.55,74.00
             10.50,92.89 40.00,98.95 44.00,78.00
             44.00,78.00 63.00,82.00 63.00,82.00
             63.00,82.00 72.50,80.40 72.50,80.40
             72.50,80.40 76.00,74.00 76.00,74.00
             76.00,74.00 78.00,74.00 78.00,74.00
             78.00,74.00 80.00,78.00 80.00,78.00
             80.00,78.00 83.40,66.42 83.40,66.42
             83.40,66.42 91.00,57.00 91.00,57.00
             91.00,57.00 94.00,63.00 94.00,63.00
             83.31,68.47 84.55,89.57 100.00,90.89
             114.59,92.15 120.57,75.37 111.78,66.19
             109.67,63.99 106.94,62.35 104.00,61.55
             101.88,60.98 98.27,61.16 96.80,59.40
             95.23,57.36 96.87,54.49 96.80,52.00
             96.55,48.84 95.21,47.88 93.00,46.00
             94.83,42.01 94.85,40.30 90.00,40.00
             88.40,35.27 84.63,31.25 81.00,37.00 Z
           M 84.00,42.00
           C 84.00,42.00 84.00,43.00 84.00,43.00
             84.00,43.00 83.00,42.00 83.00,42.00
             83.00,42.00 84.00,42.00 84.00,42.00 Z
           M 88.00,44.00
           C 88.00,44.00 84.00,44.00 84.00,44.00
             84.00,44.00 88.00,44.00 88.00,44.00 Z
           M 54.00,65.00
           C 54.00,65.00 52.00,64.00 52.00,64.00
             52.00,64.00 55.00,67.00 55.00,67.00
             55.00,67.00 55.00,69.00 55.00,69.00
             55.00,69.00 54.00,69.00 54.00,69.00
             54.00,69.00 52.00,71.00 52.00,71.00
             52.00,71.00 46.00,65.00 46.00,65.00
             49.36,63.37 51.42,61.52 54.00,65.00 Z
           M 45.00,64.00
           C 45.00,64.00 45.00,65.00 45.00,65.00
             45.00,65.00 44.00,64.00 44.00,64.00
             44.00,64.00 45.00,64.00 45.00,64.00 Z
           M 28.00,65.00
           C 28.00,65.00 28.00,70.00 28.00,70.00
             23.23,72.46 21.41,77.32 27.06,79.53
             29.33,80.42 32.65,79.45 35.00,79.00
             35.00,79.00 35.00,74.00 35.00,74.00
             35.00,74.00 39.00,75.00 39.00,75.00
             38.12,77.20 36.88,80.74 35.30,82.43
             27.08,91.26 11.73,78.52 21.47,68.39
             23.47,66.32 25.36,65.78 28.00,65.00 Z
           M 46.00,67.00
           C 46.00,67.00 51.00,71.00 51.00,71.00
             48.77,76.46 44.85,71.61 46.00,67.00 Z
           M 92.76,72.00
           C 94.56,76.16 94.21,79.32 98.87,82.10
             103.27,84.72 108.41,79.57 107.51,75.04
             106.90,71.91 103.88,70.61 102.00,68.00
             103.98,68.32 105.13,68.33 106.87,69.60
             115.70,76.04 106.31,89.84 96.97,84.38
             94.39,82.88 93.03,80.92 92.76,77.99
             92.11,75.63 92.50,74.24 92.76,72.00 Z
           M 97.00,69.00
           C 97.00,69.00 94.00,72.00 94.00,72.00
             94.00,72.00 95.00,69.00 95.00,69.00
             95.00,69.00 97.00,69.00 97.00,69.00 Z
           M 58.00,71.00
           C 58.00,71.00 58.00,72.00 58.00,72.00
             58.00,72.00 57.00,71.00 57.00,71.00
             57.00,71.00 58.00,71.00 58.00,71.00 Z
           M 105.00,72.00
           C 105.00,72.00 105.00,73.00 105.00,73.00
             105.00,73.00 104.00,72.00 104.00,72.00
             104.00,72.00 105.00,72.00 105.00,72.00 Z
           M 98.00,73.00
           C 98.00,73.00 96.00,77.00 96.00,77.00
             96.00,77.00 98.00,73.00 98.00,73.00 Z
           M 106.00,73.00
           C 106.00,73.00 107.00,78.00 107.00,78.00
             104.65,76.11 104.60,75.64 106.00,73.00 Z
           M 73.00,76.00
           C 71.94,79.31 71.31,79.94 68.00,81.00
             68.00,81.00 73.00,76.00 73.00,76.00 Z
           M 100.00,80.00
           C 100.00,80.00 100.00,81.00 100.00,81.00
             100.00,81.00 99.00,80.00 99.00,80.00
             99.00,80.00 100.00,80.00 100.00,80.00 Z" />
</svg>
