<?xml version="1.0" encoding="UTF-8" standalone="no"?>
<!DOCTYPE svg PUBLIC "-//W3C//DTD SVG 20010904//EN"
              "http://www.w3.org/TR/2001/REC-SVG-20010904/DTD/svg10.dtd">

<svg xmlns="http://www.w3.org/2000/svg"
     width="1.73611in" height="1.73611in"
     viewBox="0 0 125 125">
  <path id="Selection"
        fill="none" stroke="black" stroke-width="1"
        d="M 40.00,12.00
           C 40.00,12.00 40.00,24.00 40.00,24.00
             40.00,24.00 86.00,24.00 86.00,24.00
             86.00,24.00 86.00,12.00 86.00,12.00
             76.85,10.36 49.15,10.36 40.00,12.00 Z
           M 40.00,27.00
           C 40.00,27.00 40.00,29.00 40.00,29.00
             40.00,29.00 86.00,29.00 86.00,29.00
             86.00,29.00 86.00,27.00 86.00,27.00
             86.00,27.00 40.00,27.00 40.00,27.00 Z
           M 40.00,32.00
           C 40.00,32.00 40.00,52.00 40.00,52.00
             40.00,53.71 39.87,57.21 40.60,58.69
             42.08,61.70 52.03,61.85 54.40,59.98
             55.96,58.74 55.85,56.77 56.00,55.00
             58.50,55.00 64.82,54.75 66.86,55.60
             69.80,56.83 69.79,59.26 72.30,60.40
             74.60,61.45 83.30,61.52 84.98,59.40
             86.15,57.92 85.99,54.82 86.00,53.00
             86.02,49.57 86.66,35.72 84.98,33.60
             83.17,31.31 75.83,32.00 73.00,32.00
             73.00,32.00 40.00,32.00 40.00,32.00 Z
           M 57.00,40.00
           C 58.61,39.32 60.22,38.50 62.00,38.37
             63.40,38.27 64.65,38.50 65.89,39.18
             74.28,43.74 66.54,55.55 59.15,50.26
             57.66,49.19 56.74,47.81 56.36,46.03
             55.93,44.04 56.80,41.97 57.00,40.00 Z
           M 56.00,100.00
           C 56.56,98.89 56.59,98.36 57.54,97.22
             63.52,90.10 69.05,98.43 71.37,99.43
             73.11,100.18 77.01,100.00 79.00,100.00
             79.00,100.00 79.00,89.00 79.00,89.00
             61.87,87.02 72.25,67.16 68.40,59.31
             66.96,56.38 59.95,56.16 58.02,58.60
             56.96,59.94 57.03,62.38 57.00,64.00
             56.93,68.09 57.50,79.87 56.26,82.98
             53.47,90.02 47.07,86.88 46.15,93.06
             44.99,100.82 50.47,100.00 56.00,100.00 Z
           M 79.00,102.00
           C 77.01,102.00 73.11,101.82 71.37,102.57
             69.05,103.57 63.52,111.90 57.54,104.78
             56.59,103.64 56.56,103.11 56.00,102.00
             53.86,102.00 49.27,101.70 47.67,103.02
             45.21,104.91 45.38,115.10 47.67,117.01
             49.18,118.17 52.22,117.99 54.00,118.00
             54.00,118.00 70.00,118.00 70.00,118.00
             72.30,118.00 76.41,118.38 77.98,116.40
             79.54,114.42 79.00,104.90 79.00,102.00 Z" />
</svg>
